<svg width="40" height="40" viewBox="0 0 40 40" fill="none" xmlns="http://www.w3.org/2000/svg">
<g clip-path="url(#clip0_6_150)">
<path d="M24.7375 14.3208H25.2375V13.8208V10.5271V10.0271H24.7375H21.7313C18.915 10.0271 16.9312 12.4295 16.9312 15.2625V16.5833H14.2125H13.7125V17.0833V20.1792V20.6792H14.2125H16.9312V29.4729V29.9729H17.4312H20.9792H21.4792V29.4729V20.6792H24.1708H24.5873L24.6626 20.2695L25.2314 17.1737L25.3398 16.5833H24.7396H21.4792V14.9125C21.4792 14.7052 21.5455 14.5366 21.6244 14.4294C21.6903 14.3397 21.738 14.3233 21.743 14.3208H24.7375ZM0.5 20C0.5 9.23031 9.23031 0.5 20 0.5C30.7697 0.5 39.5 9.23031 39.5 20C39.5 30.7697 30.7697 39.5 20 39.5C9.23031 39.5 0.5 30.7697 0.5 20Z" fill="white" stroke="black"/>
</g>
<defs>
<clipPath id="clip0_6_150">
<rect width="40" height="40" fill="white"/>
</clipPath>
</defs>
</svg>
