<svg width="40" height="40" viewBox="0 0 40 40" fill="none" xmlns="http://www.w3.org/2000/svg">
<g clip-path="url(#clip0_6_148)">
<path d="M22.4292 12.6132L22.0487 12.9783L19.3287 15.5883L18.9831 15.9199L18.6369 15.5889C17.9656 14.9469 16.7863 14.1875 14.9975 14.1875C11.8664 14.1875 9.295 16.7833 9.295 20C9.295 23.2166 11.8688 25.8125 14.9975 25.8125C18.1615 25.8125 19.581 23.8629 20.0333 22.5H14.9975H14.4975V22V18.57V18.07H14.9975H24.4425H24.8647L24.9354 18.4862C25.0223 18.9975 25.1 19.5291 25.1 20.2275C25.1 23.1994 24.1036 25.7729 22.323 27.6062C20.5414 29.4405 18.0077 30.4994 15 30.5L22.4292 12.6132ZM22.4292 12.6132L22.0443 12.2526C20.2123 10.5362 17.8337 9.5 15 9.5C9.19394 9.5 4.5 14.1913 4.5 20C4.5 25.8079 9.19259 30.4987 14.9975 30.5L22.4292 12.6132ZM32.5 23H33V22.5V20.5H35H35.5V20V17.5V17H35H33V15V14.5H32.5H30H29.5V15V17H27.5H27V17.5V20V20.5H27.5H29.5V22.5V23H30H32.5ZM0.5 20C0.5 9.22864 9.22864 0.5 20 0.5C30.7714 0.5 39.5 9.22864 39.5 20C39.5 30.7714 30.7714 39.5 20 39.5C9.22864 39.5 0.5 30.7714 0.5 20Z" fill="white" stroke="black"/>
</g>
<defs>
<clipPath id="clip0_6_148">
<rect width="40" height="40" fill="white"/>
</clipPath>
</defs>
</svg>
