<svg width="40" height="40" viewBox="0 0 40 40" fill="none" xmlns="http://www.w3.org/2000/svg">
<g clip-path="url(#clip0_6_146)">
<path d="M15.1042 28.7896H15.6042V28.2896V15.2562V14.7562H15.1042H11.0542H10.5542V15.2562V28.2896V28.7896H11.0542H15.1042ZM15.7375 11.6292H15.7376L15.7374 11.6182C15.7224 10.9314 15.4726 10.2973 15.0041 9.83348C14.5337 9.36773 13.8757 9.10625 13.1062 9.10625C12.3384 9.10625 11.6698 9.36653 11.1902 9.82883C10.7106 10.2912 10.4479 10.9294 10.4479 11.6292C10.4479 13.0261 11.4989 14.1562 13.0542 14.1562C13.8478 14.1562 14.524 13.8893 15.0043 13.421C15.4835 12.9537 15.7375 12.3148 15.7375 11.6292ZM29.8958 28.7896H30.3958V28.2896V20.5833C30.3958 18.5816 29.8742 17.0425 28.9356 15.9985C27.9919 14.9488 26.681 14.4604 25.2333 14.4604C23.5216 14.4604 22.2933 15.1639 21.5119 15.9146L21.4391 15.2032L21.3931 14.7542H20.9417H17.4229H16.8993L16.9235 15.2773C16.9775 16.4446 17.0292 17.7964 17.0292 19.4125V28.2875V28.7875H17.5292H21.5812H22.0812V28.2875V20.7729C22.0812 20.4018 22.1117 20.1152 22.1794 19.9499L22.1794 19.9499L22.1817 19.9441C22.4313 19.3122 22.9538 18.7437 23.7938 18.7437C24.3738 18.7437 24.7236 18.9576 24.9528 19.3018C25.2041 19.6793 25.3458 20.2699 25.3458 21.0667V28.2896V28.7896H25.8458H29.8958ZM0.5 20C0.5 9.23031 9.23031 0.5 20 0.5C30.7697 0.5 39.5 9.23031 39.5 20C39.5 30.7697 30.7697 39.5 20 39.5C9.23031 39.5 0.5 30.7697 0.5 20Z" fill="white" stroke="black"/>
</g>
<defs>
<clipPath id="clip0_6_146">
<rect width="40" height="40" fill="white"/>
</clipPath>
</defs>
</svg>
